<svg xmlns="http://www.w3.org/2000/svg" id="Layer_1" viewBox="0 0 800 300"><path id="svgEditorBackground" fill="none" d="M0 0h800v300H0z"/><style><![CDATA[
	.st0{font-family:'MyriadPro-Regular';}
	.st1{font-size:12;}
]]></style><text transform="translate(178.71 117.205)" class="st0 st1">Aproveite centenas de promoções diariamente compartilhadas por usuários como você.</text><path d="M238.73 121.2c10.924.07 21.782 1.288 32.693 1.605 1.282.044 2.564.075 3.846.09 1.4-1.062 1.068-1.366-1-.91-3.022.004-6.04.06-9.06.168-4.974.178-9.91.72-14.814 1.56-.537.09-1.786.904-.555.905 4.268.002 8.52.058 12.768.5 1.472.15 3.452 1.142 4.818.77-3.058.83-5.87 1.868-9.097 2.075-.214.014-1.963.67-1.18.883 2.69.73 5.293.888 8.075.9.613.003 2.093-.922.796-.928-2.52-.01-4.854-.144-7.308-.81l-1.18.884c4.02-.26 7.746-1.59 11.612-2.642.166-.045 1.347-.607.678-.805-5.725-1.687-11.734-1.73-17.658-1.754l-.215.586c1.223-.196 2.45-.367 3.682-.515 2.912-.376 5.85-.538 8.78-.678 4.254-.203 8.52-.172 12.778-.173.61 0 2.095-.92.796-.93-12.843-.083-25.62-1.626-38.462-1.71-.61-.003-2.09.922-.793.93z"/></svg>