<?xml version="1.0" encoding="utf-8"?>
<!-- Generator: Adobe Illustrator 15.0.0, SVG Export Plug-In . SVG Version: 6.00 Build 0)  -->
<!DOCTYPE svg PUBLIC "-//W3C//DTD SVG 1.1//EN" "http://www.w3.org/Graphics/SVG/1.1/DTD/svg11.dtd">
<svg version="1.1" id="Layer_1" xmlns="http://www.w3.org/2000/svg" xmlns:xlink="http://www.w3.org/1999/xlink" x="0px" y="0px"
	 width="349.5px" height="143px" viewBox="-98.5 -9.5 349.5 143" style="enable-background:new -98.5 -9.5 349.5 143;"
	 xml:space="preserve">
<style type="text/css">
<![CDATA[
	.st0{font-size:82.3;}
	.st1{font-family:'Ikaros-Light';}
	.st2{font-size:98.76;}
	.st3{fill:#2C3E50;}
	.st4{fill:#FFFFFF;}
	.st5{font-family:'Ikaros-Regular';}
	.st6{fill:#3B97D3;}
]]>
</style>
<path class="st3" d="M159-1.5c0.1,0,0.5,0.3,0.6,0.6l1.4,3.4h-13c-0.8,0-2-1-2-2c0-0.8,1-2,2-2H159 M247,15.5
	c-1.3,4.3-9.7,24.5-12.5,31.3c-1.2,2.8-1.9,4.601-2.2,5.2c-0.3,0.9-1,1.5-1.3,1.5h-46c0,0-0.1,0-0.2,0l0,0h-0.2
	c-0.199-0.1-0.5-0.3-0.699-0.4l-14.5-37.6H247 M159-5.5h-11c-3.2,0-6,3-6,6c0,3.2,3,6,6,6h13.6l18.7,48.1c0.5,1.301,2.2,2.5,3.4,2.7
	c0,0,0.6,0.2,1.3,0.2h46c2.2,0,4.2-1.9,5-4c1.1-2.9,15-35.8,15-38s-1.8-4-4-4h-77.9L163.2-2.6C162.6-3.9,161-5.5,159-5.5L159-5.5z"
	/>
<path class="st6" d="M182,65.5c4.4,0,8,3.6,8,8s-3.6,8-8,8s-8-3.6-8-8S177.6,65.5,182,65.5 M182,61.5c-6.6,0-12,5.4-12,12
	s5.4,12,12,12s12-5.4,12-12S188.6,61.5,182,61.5L182,61.5z"/>
<path class="st6" d="M235,65.5c4.4,0,8,3.6,8,8s-3.6,8-8,8s-8-3.6-8-8S230.6,65.5,235,65.5 M235,61.5c-6.6,0-12,5.4-12,12
	s5.4,12,12,12s12-5.4,12-12S241.6,61.5,235,61.5L235,61.5z"/>
<circle class="st6" cx="182" cy="73.5" r="3"/>
<circle class="st6" cx="235" cy="73.5" r="3"/>
<text transform="matrix(1 0 0 1 -71.5 81)" class="st4 st1 st2">tome</text>
<text transform="matrix(1 0 0 1 -98.5 128)" class="st4 st5 st0">descontos</text>
</svg>
